<svg xmlns="http://www.w3.org/2000/svg" viewBox="0 0 32 32" width="32" height="32" role="img" aria-label="PirateFlix">
  <rect width="32" height="32" rx="7" fill="#0a1826"/>
  <path d="M16 4.2c-6 0-10 3.9-10 9.4 0 3.2 1.6 5.5 3.6 6.9v3c0 1.2 1 2.1 2.1 2.1h8.6c1.1 0 2.1-.9 2.1-2.1v-3c2-1.4 3.6-3.7 3.6-6.9 0-5.5-4-9.4-10-9.4z" fill="#e0b34a"/>
  <circle cx="12" cy="14" r="2.7" fill="#0a1826"/>
  <circle cx="20" cy="14" r="2.7" fill="#0a1826"/>
  <path d="M16 17.2l-1.7 3.1h3.4z" fill="#0a1826"/>
  <g fill="#0a1826">
    <rect x="12.9" y="22.4" width="1.5" height="3.2"/>
    <rect x="15.25" y="22.4" width="1.5" height="3.2"/>
    <rect x="17.6" y="22.4" width="1.5" height="3.2"/>
  </g>
</svg>
